<svg xmlns="http://www.w3.org/2000/svg" xmlns:xlink="http://www.w3.org/1999/xlink" width="107" height="107" viewBox="0 0 107 107">
    <defs>
        <rect id="b" width="31" height="31" rx="15.5"/>
        <filter id="a" width="538.7%" height="538.7%" x="-219.4%" y="-167.7%" filterUnits="objectBoundingBox">
            <feOffset dy="16" in="SourceAlpha" result="shadowOffsetOuter1"/>
            <feGaussianBlur in="shadowOffsetOuter1" result="shadowBlurOuter1" stdDeviation="20"/>
            <feColorMatrix in="shadowBlurOuter1" values="0 0 0 0 0.0823529412 0 0 0 0 0.0823529412 0 0 0 0 0.0941176471 0 0 0 0.04 0"/>
        </filter>
    </defs>
    <g fill="none" fill-rule="evenodd">
        <g transform="translate(38 22)">
            <use fill="#000" filter="url(#a)" xlink:href="#b"/>
            <use fill="#6943FB" xlink:href="#b"/>
        </g>
        <path fill="#FFF" fill-rule="nonzero" d="M59.593 31.204a3.961 3.961 0 0 1 0 5.56L52.5 43.913a2.775 2.775 0 0 1-3.941 0c-1.08-1.088-1.08-2.873 0-3.968l7.093-7.154a1.674 1.674 0 0 1 2.362 0 1.696 1.696 0 0 1 0 2.382L51.71 41.53c-.204.212-.585.219-.79.006a.583.583 0 0 1 .007-.803l6.298-6.35a.545.545 0 0 0 0-.797.538.538 0 0 0-.784 0l-7.093 7.147a1.692 1.692 0 0 0 0 2.39 1.65 1.65 0 0 0 2.362 0l7.094-7.154a2.809 2.809 0 0 0 0-3.975 2.752 2.752 0 0 0-3.942 0L48.56 38.35c-.204.212-.586.219-.79.007a.58.58 0 0 1 .006-.797l6.304-6.357a3.869 3.869 0 0 1 5.514 0z"/>
    </g>
</svg>
