<svg xmlns="http://www.w3.org/2000/svg" width="20" height="20" viewBox="0 0 20 20">
    <path fill="#0E0E0E" fill-rule="nonzero" d="M10.105 0C4.867 0 .625 4.478.625 10c0 4.42 2.716 8.167 6.482 9.488.474.094.648-.215.648-.481 0-.238-.008-.867-.012-1.7-2.637.603-3.194-1.342-3.194-1.342-.431-1.154-1.054-1.463-1.054-1.463-.86-.62.066-.607.066-.607.952.07 1.452 1.03 1.452 1.03.845 1.53 2.22 1.087 2.761.832.086-.647.33-1.088.6-1.338-2.105-.25-4.318-1.11-4.318-4.942 0-1.091.368-1.983.976-2.683-.107-.252-.427-1.269.083-2.646 0 0 .794-.269 2.607 1.025a8.647 8.647 0 0 1 2.37-.338 8.647 8.647 0 0 1 2.37.338c1.802-1.294 2.596-1.026 2.596-1.026.51 1.378.19 2.395.095 2.647.604.7.971 1.592.971 2.683 0 3.842-2.216 4.688-4.325 4.934.332.3.64.913.64 1.85 0 1.338-.012 2.413-.012 2.738 0 .263.166.575.652.475 3.793-1.311 6.507-5.062 6.507-9.474 0-5.522-4.245-10-9.481-10"/>
</svg>
