<svg xmlns="http://www.w3.org/2000/svg" width="20" height="19" viewBox="0 0 20 19">
    <g fill="none" fill-rule="evenodd" stroke="#6943FB" stroke-linecap="round" stroke-linejoin="round" stroke-width="2">
        <path d="M12.25 16.5v.25c0 .621-.504 1.125-1.125 1.125h-9A1.125 1.125 0 0 1 1 16.75v-9c0-.621.504-1.125 1.125-1.125h1.13"/>
        <path d="M8.22 1.302l9.16 1.288a1 1 0 0 1 .85 1.13l-1.287 9.16a1 1 0 0 1-1.13.85l-9.16-1.287a1 1 0 0 1-.85-1.13l1.287-9.16a1 1 0 0 1 1.13-.85z"/>
    </g>
</svg>
