<svg xmlns="http://www.w3.org/2000/svg" width="13" height="17" viewBox="0 0 13 17">
    <path fill="none" fill-rule="evenodd" stroke="#201647" stroke-linecap="round" stroke-linejoin="round" d="M10.986 9.213c-.982.13-1.684.555-2.105 1.277-.79 1.358-2.136 2.43-2.62 3.602-.484 1.173-.173 1.704-1.173 1.79-1 .087-1.631-.294-1.593-1.936.026-1.096.557-2.247 1.593-3.456H2.571c-1.767 0-1.817-2.267-.908-2.65-.86-.481-.971-2.247.19-2.558-.849-.916-.03-2.267.718-2.267C1.957 2.185 2.565 1 4.366 1c1.802 0 2.81.84 4.515.84.63 0 1.136.018 1.518.052a1 1 0 0 1 .871.721c.244.852.417 1.777.517 2.775.096.948.119 1.91.068 2.886a1 1 0 0 1-.869.94z"/>
</svg>
