<svg xmlns="http://www.w3.org/2000/svg" width="13" height="17" viewBox="0 0 13 17">
    <path fill="none" fill-rule="evenodd" stroke="#201647" stroke-linecap="round" stroke-linejoin="round" d="M1.895 7.68C2.878 7.553 3.579 7.127 4 6.405c.79-1.358 2.137-2.43 2.62-3.602.484-1.173.173-1.704 1.173-1.79 1-.087 1.631.294 1.593 1.936-.025 1.096-.557 2.247-1.593 3.456h2.517c1.768 0 1.817 2.267.908 2.65.86.481.971 2.247-.19 2.558.85.916.03 2.267-.718 2.267.615.83.006 2.015-1.795 2.015-1.802 0-2.81-.84-4.515-.84-.63 0-1.135-.018-1.517-.052a1 1 0 0 1-.872-.72 15.882 15.882 0 0 1-.517-2.776 18.864 18.864 0 0 1-.067-2.886 1 1 0 0 1 .868-.94z"/>
</svg>
