<svg xmlns="http://www.w3.org/2000/svg" width="14" height="17" viewBox="0 0 14 17">
    <path fill="#FFF" fill-rule="nonzero" d="M10.463 16.8H5.987c-1.882 0-3.22-3.081-4.402-5.798C1.14 9.977.72 9.011.37 8.487c-.515-.77-.49-1.716.062-2.303.59-.623 1.614-.647 2.187-.04L3.7 7.348V1.638C3.699.749 4.424 0 5.283 0c.875 0 1.585.727 1.585 1.621v2.474c.233-.138.504-.218.793-.218.682 0 1.28.473 1.498 1.113a1.55 1.55 0 0 1 .879-.273c.682 0 1.28.473 1.498 1.113a1.55 1.55 0 0 1 .88-.273c.858 0 1.584.751 1.584 1.638v4.545c0 3.518-3.248 4.968-3.385 5.028a.392.392 0 0 1-.152.032zM1.683 6.547a.763.763 0 0 0-.555.252c-.312.334-.208.862.023 1.209.383.577.79 1.523 1.26 2.614.951 2.213 2.255 5.245 3.598 5.245h4.296c.436-.214 2.762-1.471 2.762-4.168V7.211a.79.79 0 0 0-.775-.787.783.783 0 0 0-.774.77c0 .23-.174.415-.388.415-.213 0-.387-.185-.387-.414v-.813a.79.79 0 0 0-.774-.787.783.783 0 0 0-.775.77c0 .23-.173.416-.387.416-.213 0-.387-.186-.387-.415v-.812a.79.79 0 0 0-.775-.788.783.783 0 0 0-.774.77c0 .23-.174.416-.388.416-.213 0-.387-.186-.387-.415V1.706a.784.784 0 0 0-.774-.773.793.793 0 0 0-.775.79v6.674c0 .17-.097.323-.242.385a.375.375 0 0 1-.425-.098L2.162 6.752a.644.644 0 0 0-.479-.205z"/>
</svg>
