<svg xmlns="http://www.w3.org/2000/svg" width="15" height="19" viewBox="0 0 15 19">
    <g fill="none" fill-rule="evenodd" stroke="#201647" stroke-linecap="round" stroke-linejoin="round">
        <path d="M1.635 5.914c.684-.12 1.177-.442 1.481-.964.61-1.048 1.65-1.876 2.024-2.782.373-.906.133-1.315.906-1.383.772-.067 1.26.228 1.23 1.497-.02.845-.43 1.952-1.23 3.318 1.307-.433 2.32-.433 3.036 0 1.074.65-.23 6.68-2.479 6.68-2.248 0-2.17-.649-3.487-.649-.392 0-.723-.008-.99-.026a1 1 0 0 1-.902-.738 12.458 12.458 0 0 1-.353-1.975 14.519 14.519 0 0 1-.06-2.032 1 1 0 0 1 .824-.946z"/>
        <path d="M11.34 7.148c.446 0 .812.011 1.098.034.362.028.668.28.766.63.178.64.305 1.332.38 2.076.072.706.09 1.422.056 2.148a.866.866 0 0 1-.736.815c-.727.11-1.248.435-1.565.978-.61 1.049-1.65 1.876-2.023 2.782-.374.906-.134 1.316-.906 1.383-.772.067-1.26-.228-1.23-1.496.02-.846.43-1.736 1.23-2.67H6.466"/>
    </g>
</svg>
