<svg xmlns="http://www.w3.org/2000/svg" width="20" height="20" viewBox="0 0 20 20">
    <path fill="#0E0E0E" fill-rule="nonzero" d="M10.293 0C7.717 0 7.396.013 6.384.06c-1.01.05-1.697.218-2.301.465a4.625 4.625 0 0 0-1.68 1.153A4.914 4.914 0 0 0 1.31 3.45c-.235.638-.394 1.362-.441 2.428C.822 6.944.812 7.283.812 10c0 2.717.012 3.056.057 4.123.047 1.064.206 1.79.44 2.427a4.94 4.94 0 0 0 1.094 1.772c.527.555 1.056.899 1.68 1.153.605.247 1.293.416 2.301.465 1.012.05 1.333.06 3.909.06 2.575 0 2.897-.012 3.908-.06 1.01-.05 1.697-.218 2.302-.465a4.642 4.642 0 0 0 1.68-1.153 4.918 4.918 0 0 0 1.093-1.772c.234-.638.394-1.363.44-2.428.048-1.066.057-1.405.057-4.122 0-2.717-.011-3.056-.056-4.122-.048-1.065-.207-1.791-.441-2.428a4.943 4.943 0 0 0-1.094-1.772 4.602 4.602 0 0 0-1.68-1.153c-.604-.247-1.292-.416-2.3-.465C13.19.01 12.867 0 10.291 0zm-.091 1.692c2.53 0 2.832.013 3.832.059.924.046 1.426.207 1.76.346.443.18.758.397 1.091.746.331.35.536.683.708 1.151.13.352.284.881.326 1.856.045 1.055.056 1.372.056 4.042s-.012 2.987-.059 4.041c-.048.975-.202 1.505-.333 1.856-.177.469-.378.8-.71 1.152-.33.349-.65.566-1.09.747-.332.136-.841.3-1.766.344-1.006.047-1.303.058-3.839.058-2.537 0-2.833-.012-3.839-.062-.925-.05-1.434-.213-1.766-.35-.45-.187-.759-.4-1.09-.75a3.057 3.057 0 0 1-.71-1.15c-.131-.35-.284-.887-.333-1.862-.035-1.05-.048-1.374-.048-4.037s.013-2.988.048-4.05c.049-.976.202-1.512.332-1.862.166-.475.379-.8.711-1.151.331-.35.64-.574 1.09-.748.332-.139.83-.301 1.755-.351 1.007-.038 1.303-.05 3.838-.05l.036.025zM10.421 5c-2.69 0-4.869 2.3-4.869 5.135 0 2.838 2.181 5.135 4.869 5.135 2.69 0 4.868-2.3 4.868-5.135C15.29 7.298 13.11 5 10.421 5zm-.128 8.333c-1.746 0-3.16-1.491-3.16-3.333s1.414-3.333 3.16-3.333c1.746 0 3.16 1.491 3.16 3.333s-1.414 3.333-3.16 3.333zm6.225-8.8c0 .662-.51 1.2-1.137 1.2-.628 0-1.138-.539-1.138-1.2 0-.662.51-1.2 1.138-1.2.626 0 1.137.538 1.137 1.2z"/>
</svg>
