<svg xmlns="http://www.w3.org/2000/svg" width="40" height="40" viewBox="0 0 40 40">
    <g fill="none" fill-rule="evenodd" stroke="#191747" stroke-linecap="round" stroke-linejoin="round" stroke-width="2.496">
        <path d="M21.584 13.932a6.238 6.238 0 0 0-6.028 1.616 6.238 6.238 0 0 0-1.616 6.028m4.406 4.406a6.238 6.238 0 0 0 6.029-1.616 6.238 6.238 0 0 0 1.615-6.028"/>
        <path d="M23.95 8.154c-5.264-1.784-11.267.13-14.448 4.999-3.18 4.868-2.524 11.135 1.225 15.239m5.18 3.404c5.264 1.785 11.266-.13 14.447-4.999 3.181-4.868 2.524-11.134-1.224-15.239"/>
        <path d="M30.398 4.42C23.12-.475 13.166.294 6.731 6.73.295 13.166-.474 23.12 4.419 30.398m5.129 5.128c7.278 4.894 17.232 4.125 23.667-2.31 6.436-6.436 7.205-16.39 2.311-23.668"/>
    </g>
</svg>
