<svg xmlns="http://www.w3.org/2000/svg" width="20" height="17" viewBox="0 0 20 17">
    <path fill="#0E0E0E" fill-rule="nonzero" d="M19.174 2.603c-.7.324-1.446.545-2.232.645A4.1 4.1 0 0 0 18.65.98c-.752.463-1.584.8-2.47.987-.709-.8-1.718-1.3-2.838-1.3-2.147 0-3.887 1.837-3.887 4.098 0 .325.035.638.1.937-3.231-.161-6.095-1.798-8.012-4.272a4.188 4.188 0 0 0-.526 2.063c0 1.425.687 2.677 1.729 3.413a3.723 3.723 0 0 1-1.76-.513v.05c0 1.988 1.337 3.646 3.117 4.023a3.755 3.755 0 0 1-1.748.07c.499 1.628 1.932 2.815 3.638 2.848a7.544 7.544 0 0 1-5.745 1.699c1.729 1.161 3.767 1.84 5.97 1.84 7.153 0 11.06-6.246 11.06-11.654 0-.175 0-.35-.012-.525a8.101 8.101 0 0 0 1.944-2.124l-.037-.016z"/>
</svg>
